<svg width="238" height="41" viewBox="0 0 238 41" fill="none" xmlns="http://www.w3.org/2000/svg">
<path d="M40.0713 40.8928V0.892761H18.4756L0.0712982 19.2971L0.0712891 40.8928H40.0713Z" fill="#2F2722"></path>
<path fill-rule="evenodd" clip-rule="evenodd" d="M19.3818 27.4343L19.3818 39.5135L11.106 39.5134L11.106 24.0064L23.1851 11.9272L38.6922 11.9272L38.6922 20.2031L26.6131 20.2031L19.3818 27.4343Z" fill="#D62727"></path>
<path fill-rule="evenodd" clip-rule="evenodd" d="M9.72655 23.2964L9.72655 39.5135L1.45068 39.5134L1.45069 19.8684L19.0471 2.27207L38.6921 2.27207L38.6921 10.5479L22.475 10.5479L9.72655 23.2964Z" fill="#FFD43E"></path>
<path fill-rule="evenodd" clip-rule="evenodd" d="M29.0366 31.5723L29.0366 39.5135L20.7607 39.5135L20.7607 28.1443L27.3226 21.5824L38.6918 21.5824L38.6918 29.8583L30.7506 29.8583L29.0366 31.5723Z" fill="#EA721B"></path>
<path d="M138.909 15.1885V33.3455H144.268V15.1885H138.909Z" fill="#2F2722"></path>
<path d="M138.73 7V12.7676H144.446V7H138.73Z" fill="#2F2722"></path>
<path fill-rule="evenodd" clip-rule="evenodd" d="M158.935 33.7016C157.196 33.7016 155.803 33.2981 154.755 32.4911C154.02 31.9254 153.496 31.2137 153.183 30.3564V40.644H147.824V15.1885H153.075V18.1021C153.446 17.2548 154.053 16.5566 154.898 16.0073C156.065 15.2241 157.506 14.8324 159.221 14.8324C160.864 14.8324 162.281 15.2241 163.472 16.0073C164.687 16.7668 165.616 17.8468 166.259 19.2471C166.926 20.6474 167.259 22.297 167.259 24.1958C167.259 26.1184 166.914 27.7916 166.223 29.2157C165.532 30.6398 164.568 31.7435 163.329 32.5267C162.091 33.31 160.626 33.7016 158.935 33.7016ZM157.434 29.4293C158.697 29.4293 159.721 28.9784 160.507 28.0765C161.293 27.1745 161.686 25.8928 161.686 24.2314C161.686 22.57 161.281 21.3002 160.471 20.422C159.685 19.5438 158.649 19.1047 157.363 19.1047C156.124 19.1047 155.1 19.5557 154.29 20.4576C153.504 21.3358 153.111 22.6056 153.111 24.267C153.111 25.9284 153.504 27.2101 154.29 28.112C155.1 28.9903 156.148 29.4293 157.434 29.4293Z" fill="#2F2722"></path>
<path d="M170.648 32.0995C172.22 33.1676 174.34 33.7016 177.008 33.7016C179.556 33.7016 181.521 33.215 182.902 32.2419C184.308 31.245 185.01 29.8565 185.01 28.0765C185.01 26.6761 184.534 25.4657 183.581 24.445C182.652 23.4007 181.271 22.6887 179.437 22.3089L176.15 21.6324C175.269 21.4426 174.638 21.2289 174.257 20.9916C173.875 20.7305 173.685 20.3864 173.685 19.9592C173.685 19.4607 173.911 19.081 174.364 18.8199C174.84 18.535 175.555 18.3927 176.507 18.3927C177.555 18.3927 178.365 18.5588 178.937 18.8911C179.508 19.1996 179.842 19.6625 179.937 20.2796H184.725C184.582 18.5707 183.796 17.2415 182.367 16.2922C180.937 15.319 179.02 14.8324 176.615 14.8324C174.185 14.8324 172.292 15.3308 170.934 16.3277C169.576 17.3008 168.898 18.6656 168.898 20.422C168.898 21.8698 169.41 23.0565 170.434 23.9822C171.458 24.8841 173.054 25.5605 175.221 26.0115L178.151 26.6168C178.937 26.7829 179.473 26.9965 179.758 27.2576C180.068 27.495 180.223 27.8391 180.223 28.29C180.223 28.8834 179.961 29.3462 179.437 29.6785C178.937 29.9871 178.127 30.1414 177.008 30.1414C175.769 30.1414 174.792 29.9396 174.078 29.5361C173.387 29.1089 172.982 28.4918 172.863 27.6848H168.076C168.219 29.5599 169.076 31.0314 170.648 32.0995Z" fill="#2F2722"></path>
<path d="M208.132 15.1885H213.384V18.502C213.948 17.501 214.687 16.6813 215.599 16.043C216.743 15.2359 218.112 14.8324 219.708 14.8324C221.613 14.8324 223.09 15.3665 224.138 16.4346C224.699 16.9938 225.113 17.6278 225.381 18.3367C225.94 17.4104 226.669 16.6458 227.568 16.043C228.759 15.2359 230.188 14.8324 231.855 14.8324C233.832 14.8324 235.344 15.3902 236.392 16.5057C237.464 17.5976 238 19.0335 238 20.8136V33.3455H232.641V21.8104C232.641 20.8848 232.391 20.2084 231.891 19.7811C231.414 19.3302 230.736 19.1047 229.854 19.1047C229.092 19.1047 228.39 19.2827 227.746 19.6388C227.127 19.971 226.639 20.4576 226.282 21.0984C225.924 21.7155 225.746 22.4513 225.746 23.3058V33.3455H220.387V21.8104C220.387 20.8848 220.137 20.2084 219.636 19.7811C219.16 19.3302 218.481 19.1047 217.6 19.1047C216.838 19.1047 216.135 19.2827 215.492 19.6388C214.873 19.971 214.385 20.4576 214.027 21.0984C213.67 21.7155 213.491 22.4513 213.491 23.3058V33.3455H208.132V15.1885Z" fill="#2F2722"></path>
<path d="M192.901 33.7015C191.615 33.7015 190.507 33.4286 189.578 32.8827C188.673 32.313 187.983 31.5654 187.506 30.6398C187.03 29.6903 186.792 28.6342 186.792 27.4711V15.1884H192.151V26.4387C192.151 27.4356 192.401 28.1832 192.901 28.6816C193.401 29.18 194.104 29.4292 195.009 29.4292C195.819 29.4292 196.533 29.2394 197.152 28.8596C197.772 28.4799 198.26 27.9577 198.617 27.2931C198.998 26.6049 199.189 25.8216 199.189 24.9434V15.1884H204.548V33.3455H199.296V30.019C198.728 31.0088 197.978 31.8329 197.045 32.4911C195.902 33.298 194.521 33.7015 192.901 33.7015Z" fill="#2F2722"></path>
<path fill-rule="evenodd" clip-rule="evenodd" d="M126.777 33.7016C124.776 33.7016 123.014 33.31 121.49 32.5267C119.989 31.7197 118.81 30.6042 117.953 29.1801C117.119 27.7323 116.702 26.0708 116.702 24.1958C116.702 22.3208 117.119 20.6831 117.953 19.2827C118.81 17.8823 119.989 16.7906 121.49 16.0073C123.014 15.2241 124.776 14.8324 126.777 14.8324C128.802 14.8324 130.564 15.2241 132.065 16.0073C133.589 16.7906 134.768 17.8823 135.602 19.2827C136.435 20.6831 136.852 22.3208 136.852 24.1958C136.852 26.0708 136.423 27.7323 135.566 29.1801C134.732 30.6042 133.553 31.7197 132.029 32.5267C130.529 33.31 128.778 33.7016 126.777 33.7016ZM126.777 29.5005C127.611 29.5005 128.361 29.2869 129.028 28.8597C129.719 28.4324 130.267 27.8272 130.671 27.0439C131.076 26.237 131.279 25.2757 131.279 24.1602C131.279 22.5225 130.838 21.2646 129.957 20.3864C129.099 19.4845 128.04 19.0335 126.777 19.0335C125.515 19.0335 124.443 19.4845 123.562 20.3864C122.704 21.2883 122.276 22.5462 122.276 24.1602C122.276 25.2757 122.478 26.237 122.883 27.0439C123.288 27.8272 123.824 28.4324 124.491 28.8597C125.181 29.2869 125.944 29.5005 126.777 29.5005Z" fill="#2F2722"></path>
<path fill-rule="evenodd" clip-rule="evenodd" d="M98.6269 39.3979C100.223 40.466 102.283 41 104.808 41C107.833 41 110.214 40.2405 111.953 38.7215C113.692 37.2262 114.561 35.1731 114.561 32.5623V15.1885H109.309V18.2937C108.992 17.3842 108.433 16.634 107.63 16.043C106.558 15.2359 105.165 14.8324 103.45 14.8324C101.783 14.8324 100.318 15.2122 99.0556 15.9717C97.8171 16.7312 96.8525 17.7993 96.1617 19.1759C95.4711 20.5526 95.1257 22.1665 95.1257 24.0178C95.1257 25.8454 95.4591 27.4356 96.1261 28.7885C96.7929 30.1414 97.7218 31.1976 98.9127 31.957C100.127 32.6928 101.545 33.0607 103.164 33.0607C104.855 33.0607 106.272 32.681 107.416 31.9215C108.255 31.3464 108.851 30.6242 109.202 29.7549V32.6335C109.202 33.9389 108.833 34.9002 108.095 35.5173C107.356 36.1344 106.177 36.443 104.558 36.443C103.581 36.443 102.771 36.3243 102.128 36.0869C101.509 35.8496 101.104 35.5054 100.913 35.0545H95.8402C96.1261 36.882 97.0549 38.3299 98.6269 39.3979ZM108.095 27.6848C107.309 28.5393 106.284 28.9665 105.022 28.9665C103.736 28.9665 102.688 28.5393 101.878 27.6848C101.092 26.8304 100.699 25.5962 100.699 23.9822C100.699 22.3682 101.092 21.1222 101.878 20.2439C102.688 19.3658 103.712 18.9267 104.951 18.9267C106.237 18.9267 107.273 19.3658 108.059 20.2439C108.869 21.0984 109.274 22.3326 109.274 23.9466C109.274 25.5605 108.881 26.8066 108.095 27.6848Z" fill="#2F2722"></path>
<path fill-rule="evenodd" clip-rule="evenodd" d="M84.0361 33.7016C82.0354 33.7016 80.2729 33.31 78.7485 32.5267C77.248 31.7197 76.069 30.6042 75.2116 29.1801C74.3779 27.7323 73.9611 26.0708 73.9611 24.1958C73.9611 22.3208 74.3779 20.6831 75.2116 19.2827C76.069 17.8823 77.248 16.7906 78.7485 16.0073C80.2729 15.2241 82.0354 14.8324 84.0361 14.8324C86.0607 14.8324 87.8232 15.2241 89.3237 16.0073C90.8481 16.7906 92.027 17.8823 92.8606 19.2827C93.6943 20.6831 94.1111 22.3208 94.1111 24.1958C94.1111 26.0708 93.6824 27.7323 92.8249 29.1801C91.9913 30.6042 90.8123 31.7197 89.288 32.5267C87.7874 33.31 86.0368 33.7016 84.0361 33.7016ZM84.0361 29.5005C84.8698 29.5005 85.62 29.2869 86.2869 28.8597C86.9776 28.4324 87.5254 27.8272 87.9304 27.0439C88.3352 26.237 88.5377 25.2757 88.5377 24.1602C88.5377 22.5225 88.0971 21.2646 87.2158 20.3864C86.3583 19.4845 85.2985 19.0335 84.0361 19.0335C82.7738 19.0335 81.7019 19.4845 80.8207 20.3864C79.9632 21.2883 79.5345 22.5462 79.5345 24.1602C79.5345 25.2757 79.737 26.237 80.1419 27.0439C80.5468 27.8272 81.0827 28.4324 81.7496 28.8597C82.4403 29.2869 83.2025 29.5005 84.0361 29.5005Z" fill="#2F2722"></path>
<path d="M56 7.71203V33.3455H73.8634V29.1445H61.5019V7.71203H56Z" fill="#2F2722"></path>
</svg>